# WaveFront *.obj file (generated by CINEMA 4D)

mtllib ./11.mtl

v -106.74800872802734 -32.52193069458008 190.89598083496094
v -106.74800872802734 470.4832763671875 190.89598083496094
v 93.25199127197266 -32.52193069458008 190.89598083496094
v 93.25199127197266 470.4832763671875 190.89598083496094
v 93.25199127197266 -32.52193069458008 -592.07647705078125
v 93.25199127197266 470.4832763671875 -592.07647705078125
v -106.74800872802734 -32.52193069458008 -592.07647705078125
v -106.74800872802734 470.4832763671875 -592.07647705078125
# 8 vertices

vn 0 0 1
vn 1 0 0
vn 0 0 -1
vn -1 0 0
vn 0 -1 0
# 5 normals

vt 0 0 0
vt 0 1 0
vt 1 1 0
vt 1 0 0
# 4 texture coordinates

o Cube.1
usemtl default
f 3/4/1 4/3/1 2/2/1 1/1/1
f 5/4/2 6/3/2 4/2/2 3/1/2
f 7/4/3 8/3/3 6/2/3 5/1/3
f 1/4/4 2/3/4 8/2/4 7/1/4
f 5/4/5 3/3/5 1/2/5 7/1/5

