# WaveFront *.obj file (generated by CINEMA 4D)

mtllib ./aircar_convoy3.mtl

v 96.73148345947266 -22.96434783935547 2848.720947265625
v 96.73148345947266 -22.96434783935547 2872.8720703125
v 82.19282531738281 -9.29858493804932 2848.720947265625
v 82.19282531738281 -9.29858493804932 2872.8720703125
v 76.78065490722656 -15.0564546585083 2848.720947265625
v 76.78065490722656 -15.0564546585083 2872.8720703125
v 91.31931304931641 -28.72221755981445 2848.720947265625
v 91.31931304931641 -28.72221755981445 2872.8720703125
v 32.6007080078125 -74.17535400390625 -4364.88623046875
v 32.6007080078125 -74.17535400390625 -4338.849609375
v 18.03165054321289 -97.66681671142578 -4364.88623046875
v 18.03165054321289 -97.66681671142578 -4338.849609375
v 22.7988109588623 -108.92729187011719 -4364.88623046875
v 22.7988109588623 -108.92729187011719 -4338.849609375
v 37.36786651611328 -85.43583679199219 -4364.88623046875
v 37.36786651611328 -85.43583679199219 -4338.849609375
v 143.86740112304688 -2.31136178970337 2848.720947265625
v 143.86740112304688 -2.31136178970337 2872.8720703125
v 130.20164489746094 -16.85001564025879 2848.720947265625
v 130.20164489746094 -16.85001564025879 2872.8720703125
v 135.95951843261719 -22.26218605041504 2848.720947265625
v 135.95951843261719 -22.26218605041504 2872.8720703125
v 149.62527465820312 -7.72353172302246 2848.720947265625
v 149.62527465820312 -7.72353172302246 2872.8720703125
v 120.28408050537109 -4.39479398727417 2757.664794921875
v 120.28408050537109 -4.39479398727417 2781.816162109375
v 106.61832427978516 -18.93344688415527 2757.664794921875
v 106.61832427978516 -18.93344688415527 2781.816162109375
v 112.37619781494141 -24.34561729431152 2757.664794921875
v 112.37619781494141 -24.34561729431152 2781.816162109375
v 126.04195404052734 -9.80696392059326 2757.664794921875
v 126.04195404052734 -9.80696392059326 2781.816162109375
v -12.66431331634521 -15.30004596710205 11.75113964080811
v -12.66431331634521 -15.30004596710205 29.16965293884277
v -21.1179141998291 3.72147846221924 11.75113964080811
v -21.1179141998291 3.72147846221924 29.16965293884277
v -25.17009353637695 -2.50257968902588 11.75113964080811
v -25.17009353637695 -2.50257968902588 29.16965293884277
v -16.71649169921875 -21.52410507202148 11.75113964080811
v -16.71649169921875 -21.52410507202148 29.16965293884277
v -12.66431331634521 -15.30004596710205 -53.92096710205078
v -12.66431331634521 -15.30004596710205 -36.5024528503418
v -21.1179141998291 3.72147846221924 -53.92096710205078
v -21.1179141998291 3.72147846221924 -36.5024528503418
v -25.17009353637695 -2.50257968902588 -53.92096710205078
v -25.17009353637695 -2.50257968902588 -36.5024528503418
v -16.71649169921875 -21.52410507202148 -53.92096710205078
v -16.71649169921875 -21.52410507202148 -36.5024528503418
v 20.165283203125 2.72320890426636 11.75113964080811
v 20.165283203125 2.72320890426636 29.16965293884277
v 9.93350791931152 -12.99257564544678 11.75113964080811
v 9.93350791931152 -12.99257564544678 29.16965293884277
v 13.28145980834961 -20.52583503723145 11.75113964080811
v 13.28145980834961 -20.52583503723145 29.16965293884277
v 23.51323699951172 -4.81005001068115 11.75113964080811
v 23.51323699951172 -4.81005001068115 29.16965293884277
v 20.165283203125 2.72320890426636 -53.92096710205078
v 20.165283203125 2.72320890426636 -36.5024528503418
v 9.93350791931152 -12.99257564544678 -53.92096710205078
v 9.93350791931152 -12.99257564544678 -36.5024528503418
v 13.28145980834961 -20.52583503723145 -53.92096710205078
v 13.28145980834961 -20.52583503723145 -36.5024528503418
v 23.51323699951172 -4.81005001068115 -53.92096710205078
v 23.51323699951172 -4.81005001068115 -36.5024528503418
v -14.14545345306396 -101.11595153808594 -4364.88623046875
v -14.14545345306396 -101.11595153808594 -4338.849609375
v -26.18255996704102 -72.68317413330078 -4364.88623046875
v -26.18255996704102 -72.68317413330078 -4338.849609375
v -31.95247077941895 -81.98670196533203 -4364.88623046875
v -31.95247077941895 -81.98670196533203 -4338.849609375
v -19.91536140441895 -110.41947174072266 -4364.88623046875
v -19.91536140441895 -110.41947174072266 -4338.849609375
v 15.36801910400391 -92.11717987060547 -4463.05078125
v 15.36801910400391 -92.11717987060547 -4437.01416015625
v -21.51276969909668 -91.83644104003906 -4463.05078125
v -21.51276969909668 -91.83644104003906 -4437.01416015625
v -8.85259628295898 -99.40971374511719 -4455.01025390625
v -8.85259628295898 -99.40971374511719 -4445.0546875
v 2.48547959327698 -99.52937316894531 -4455.01025390625
v 2.48547959327698 -99.52937316894531 -4445.0546875
# 80 vertices

vn 0 0 -1
vn -0.72864389419556 0.68489277362823 0
vn -0.68489277362823 -0.72864389419556 0
vn 0.72864389419556 -0.68489277362823 0
vn 0 0 1
vn -0.92088007926941 -0.38984590768814 0
vn 0.84983664751053 -0.52704620361328 0
vn 0.92088007926941 0.38984590768814 0
vn 0.68489277362823 0.72864389419556 0
vn -0.83804428577423 0.54560220241547 0
vn -0.91382831335068 -0.40610074996948 0
vn 0.83804428577423 -0.54560220241547 0
vn 0.91382831335068 0.40610074996948 0
vn -0.84983664751053 0.52704620361328 0
vn -0.99997115135193 0.00759376818314 0
vn -0.00759376818314 -0.99997115135193 0
vn 0.99997115135193 -0.00759376818314 0
# 17 normals

vt 0 0 0
vt 0 1 0
vt 1 1 0
vt 1 0 0
# 4 texture coordinates

o whitelight
usemtl default
f 5/4/1 3/3/1 1/2/1 7/1/1
f 5/4/2 6/3/2 4/2/2 3/1/2
f 7/4/3 8/3/3 6/2/3 5/1/3
f 1/4/4 2/3/4 8/2/4 7/1/4
f 4/4/5 6/3/5 8/2/5 2/1/5
f 13/4/1 11/3/1 9/2/1 15/1/1
f 13/4/6 14/3/6 12/2/6 11/1/6
f 15/4/7 16/3/7 14/2/7 13/1/7
f 9/4/8 10/3/8 16/2/8 15/1/8
f 12/4/5 14/3/5 16/2/5 10/1/5
f 21/4/1 19/3/1 17/2/1 23/1/1
f 21/4/3 22/3/3 20/2/3 19/1/3
f 23/4/4 24/3/4 22/2/4 21/1/4
f 17/4/9 18/3/9 24/2/9 23/1/9
f 20/4/5 22/3/5 24/2/5 18/1/5
f 29/4/1 27/3/1 25/2/1 31/1/1
f 29/4/3 30/3/3 28/2/3 27/1/3
f 31/4/4 32/3/4 30/2/4 29/1/4
f 25/4/9 26/3/9 32/2/9 31/1/9
f 28/4/5 30/3/5 32/2/5 26/1/5
f 37/4/1 35/3/1 33/2/1 39/1/1
f 37/4/10 38/3/10 36/2/10 35/1/10
f 39/4/11 40/3/11 38/2/11 37/1/11
f 33/4/12 34/3/12 40/2/12 39/1/12
f 36/4/5 38/3/5 40/2/5 34/1/5
f 45/4/1 43/3/1 41/2/1 47/1/1
f 45/4/10 46/3/10 44/2/10 43/1/10
f 47/4/11 48/3/11 46/2/11 45/1/11
f 41/4/12 42/3/12 48/2/12 47/1/12
f 44/4/5 46/3/5 48/2/5 42/1/5
f 53/4/1 51/3/1 49/2/1 55/1/1
f 53/4/11 54/3/11 52/2/11 51/1/11
f 55/4/12 56/3/12 54/2/12 53/1/12
f 49/4/13 50/3/13 56/2/13 55/1/13
f 52/4/5 54/3/5 56/2/5 50/1/5
f 61/4/1 59/3/1 57/2/1 63/1/1
f 61/4/11 62/3/11 60/2/11 59/1/11
f 63/4/12 64/3/12 62/2/12 61/1/12
f 57/4/13 58/3/13 64/2/13 63/1/13
f 60/4/5 62/3/5 64/2/5 58/1/5
f 69/4/1 67/3/1 65/2/1 71/1/1
f 69/4/14 70/3/14 68/2/14 67/1/14
f 71/4/6 72/3/6 70/2/6 69/1/6
f 65/4/7 66/3/7 72/2/7 71/1/7
f 68/4/5 70/3/5 72/2/5 66/1/5
f 77/4/1 75/3/1 73/2/1 79/1/1
f 77/4/15 78/3/15 76/2/15 75/1/15
f 79/4/16 80/3/16 78/2/16 77/1/16
f 73/4/17 74/3/17 80/2/17 79/1/17
f 76/4/5 78/3/5 80/2/5 74/1/5

v 66.10871124267578 -26.23193550109863 2893.497314453125
v 54.20482635498047 11.26071166992188 2905.534912109375
v 158.00871276855469 -14.60793876647949 2893.497314453125
v 160.2025146484375 24.6678581237793 2905.534912109375
v 158.00871276855469 -14.60793876647949 2736.5556640625
v 162.03338623046875 10.1929759979248 2724.51806640625
v 66.10871124267578 -26.23193550109863 2736.5556640625
v 56.03568649291992 -3.21417093276978 2724.51806640625
v 69.36734771728516 31.64019393920898 2871.698486328125
v 140.44328308105469 40.63025283813477 2871.698486328125
v 141.3521728515625 33.44453048706055 2781.8369140625
v 70.27623748779297 24.4544734954834 2781.8369140625
v -46.31610870361328 -95.99986267089844 -4330.57421875
v -53.42111587524414 -57.309814453125 -4318.53662109375
v 46.31610870361328 -95.99986267089844 -4330.57421875
v 53.42111587524414 -57.309814453125 -4318.53662109375
v 46.31610870361328 -95.99986267089844 -4487.515625
v 53.42111587524414 -71.9000244140625 -4499.55322265625
v -46.31610870361328 -95.99986267089844 -4487.515625
v -53.42111587524414 -71.9000244140625 -4499.55322265625
v -35.82111740112305 -38.99409866333008 -4352.373046875
v 35.82111740112305 -38.99409866333008 -4352.373046875
v 35.82111740112305 -46.2370719909668 -4442.234375
v -35.82111740112305 -46.2370719909668 -4442.234375
# 24 vertices

vn 0.03725049644709 -0.29472267627716 0.95485651493073
vn 0.9938617348671 -0.11037699878216 0.00746888481081
vn 0.05606342479587 -0.44331979751587 -0.89460855722427
vn -0.93769574165344 -0.34728428721428 0.01096884626895
vn -0.12278445065022 0.97074407339096 0.20634913444519
vn -0.1215653270483 0.96108478307724 -0.24806827306747
vn 0.12546922266483 -0.99209749698639 0
vn -0.11034467071295 0.87247610092163 0.47603523731232
vn 0.67958682775497 0.73177617788315 -0.05162684619427
vn -0.11450238525867 0.90548765659332 -0.40863353013992
vn -0.8403936624527 0.53951197862625 -0.05162614583969
vn 0 -0.29706653952599 0.9548567533493
vn 0.97215354442596 -0.23422563076019 0.00746896956116
vn 0 -0.44685104489326 -0.89460837841034
vn -0.97386115789413 -0.2268790602684 0.01096894685179
vn 0 0.97847908735275 0.20634593069553
vn 0 0.96874248981476 -0.2480685710907
vn 0 -1 0
vn 0 0.87942337989807 0.47604048252106
vn 0.7660505771637 0.6407036781311 -0.05162630230188
vn 0 0.91269987821579 -0.40863054990768
vn -0.7660505771637 0.6407036781311 -0.05162630230188
# 22 normals

vt 0.11435136944056 0.1143513917923 0
vt 0.11435136944056 0.8856486082077 0
vt 0.8856486082077 0.8856486082077 0
vt 0.8856486082077 0.1143513917923 0
# 4 texture coordinates

o grey
usemtl default
f 83/4/18 84/3/18 82/2/18 81/1/18
f 85/4/19 86/3/19 84/2/19 83/1/19
f 87/4/20 88/3/20 86/2/20 85/1/20
f 81/4/21 82/3/21 88/2/21 87/1/21
f 90/8/22 91/7/23 92/6/23 89/5/22
f 85/4/24 83/3/24 81/2/24 87/1/24
f 84/4/25 90/8/22 89/5/22 82/1/25
f 86/3/26 91/7/26 90/8/26 84/4/26
f 88/2/27 92/6/23 91/7/23 86/3/27
f 82/1/28 89/5/28 92/6/28 88/2/28
f 95/4/29 96/3/29 94/2/29 93/1/29
f 97/4/30 98/3/30 96/2/30 95/1/30
f 99/4/31 100/3/31 98/2/31 97/1/31
f 93/4/32 94/3/32 100/2/32 99/1/32
f 102/8/33 103/7/34 104/6/34 101/5/33
f 97/4/35 95/3/35 93/2/35 99/1/35
f 96/4/36 102/8/33 101/5/33 94/1/36
f 98/3/37 103/7/37 102/8/37 96/4/37
f 100/2/38 104/6/34 103/7/34 98/3/38
f 94/1/39 101/5/39 104/6/39 100/2/39

v -46.31610870361328 -13.34985256195068 67.84693908691406
v -53.42111587524414 25.34019660949707 79.88455200195312
v 46.31610870361328 -13.34985256195068 67.84693908691406
v 53.42111587524414 25.34019660949707 79.88455200195312
v 46.31610870361328 -13.34985256195068 -89.09451293945312
v 53.42111587524414 10.74998569488525 -101.13211822509766
v -46.31610870361328 -13.34985256195068 -89.09451293945312
v -53.42111587524414 10.74998569488525 -101.13211822509766
v -35.82111740112305 43.65591430664062 46.04813766479492
v 35.82111740112305 43.65591430664062 46.04813766479492
v 35.82111740112305 36.41294097900391 -43.81341171264648
v -35.82111740112305 36.41294097900391 -43.81341171264648
# 12 vertices

# 0 normal

# 0 texture coordinate

o darkgrey
usemtl default
f 107/4/29 108/3/29 106/2/29 105/1/29
f 109/4/30 110/3/30 108/2/30 107/1/30
f 111/4/31 112/3/31 110/2/31 109/1/31
f 105/4/32 106/3/32 112/2/32 111/1/32
f 114/8/33 115/7/34 116/6/34 113/5/33
f 109/4/35 107/3/35 105/2/35 111/1/35
f 108/4/36 114/8/33 113/5/33 106/1/36
f 110/3/37 115/7/37 114/8/37 108/4/37
f 112/2/38 116/6/34 115/7/34 110/3/38
f 106/1/39 113/5/39 116/6/39 112/2/39

