# WaveFront *.obj file (generated by CINEMA 4D)

mtllib ./camera1.mtl

v -21.53817558288574 2.50840091705322 22.35430335998535
v -21.53817558288574 27.89488792419434 16.91401290893555
v 21.53817558288574 2.50840091705322 22.35430335998535
v 21.53817558288574 27.89488792419434 16.91401290893555
v 21.53817558288574 -15.07106018066406 -59.67821884155273
v 21.53817558288574 10.31542682647705 -65.11850738525391
v -21.53817558288574 -15.07106018066406 -59.67821884155273
v -21.53817558288574 10.31542682647705 -65.11850738525391
v 21.53817558288574 6.93574094772339 -64.39424896240234
v -21.53817558288574 6.93574094772339 -64.39424896240234
v -21.53817558288574 24.51520156860352 17.63827514648438
v 21.53817558288574 24.51520156860352 17.63827514648438
v 16.46429443359375 -15.07106018066406 -59.67821884155273
v 16.46429443359375 6.93574094772339 -64.39424896240234
v 16.46429443359375 10.31542682647705 -65.11850738525391
v 16.46429443359375 27.89488792419434 16.91401290893555
v 16.46429443359375 24.51520156860352 17.63827514648438
v 16.46429443359375 2.50840091705322 22.35430335998535
v -16.62461090087891 -15.07106018066406 -59.67821884155273
v -16.62461090087891 6.93574094772339 -64.39424896240234
v -16.62461090087891 10.31542682647705 -65.11850738525391
v -16.62461090087891 27.89488792419434 16.91401290893555
v -16.62461090087891 24.51520156860352 17.63827514648438
v -16.62461090087891 2.50840091705322 22.35430335998535
v 16.46429443359375 -20.05784034729004 -58.60955810546875
v 16.46429443359375 -2.47837805747986 23.42296409606934
v -16.62461090087891 -20.05784034729004 -58.60955810546875
v -16.62461090087891 -2.47837805747986 23.42296409606934
v 21.53817558288574 -16.34926223754883 -65.64279937744141
v 21.53817558288574 9.0372257232666 -71.08308410644531
v -21.53817558288574 -16.34926223754883 -65.64279937744141
v -21.53817558288574 9.0372257232666 -71.08308410644531
v 21.53817558288574 5.65753936767578 -70.35882568359375
v -21.53817558288574 5.65753936767578 -70.35882568359375
v 16.46429443359375 -16.34926223754883 -65.64279937744141
v 16.46429443359375 5.65753936767578 -70.35882568359375
v 16.46429443359375 9.0372257232666 -71.08308410644531
v -16.62461090087891 -16.34926223754883 -65.64279937744141
v -16.62461090087891 5.65753936767578 -70.35882568359375
v -16.62461090087891 9.0372257232666 -71.08308410644531
v 8.87101078033447 -4.77431440353394 -61.88479614257812
v 7.46276903152466 -9.46387195587158 -60.87982940673828
v -1.26247644424438 3.81146836280823 -63.7247200012207
v 3.68515110015869 3.11589932441711 -63.57566070556641
v 0.00000000000001 -0.13184151053429 -40.22123336791992
v 8.87101078033447 -0.13184151053429 -40.22123336791992
v 7.46276903152466 -4.82139921188354 -39.21626663208008
v 3.68515110015869 -8.02205562591553 -38.53037261962891
v -1.26247644424438 -8.71762466430664 -38.38131332397461
v -5.80927658081055 -6.68726825714111 -38.81641387939453
v -8.5116720199585 -2.57561016082764 -39.69753646850586
v -8.5116720199585 2.31192708015442 -40.74493026733398
v -5.80927658081055 6.42358541488647 -41.62605285644531
v -1.26247644424438 8.45394134521484 -42.0611572265625
v 3.68515110015869 7.75837230682373 -41.9120979309082
v 7.46276903152466 4.55771636962891 -41.22620010375977
v 3.68515110015869 -12.66452884674072 -60.19393539428711
v -1.26247644424438 -13.36009788513184 -60.04487609863281
v -5.80927658081055 -11.32974147796631 -60.47997665405273
v -8.5116720199585 -7.21808338165283 -61.36109924316406
v -8.5116720199585 -2.3305459022522 -62.40849304199219
v -5.80927658081055 1.78111207485199 -63.28961563110352
v 7.46276903152466 -0.08475688844919 -62.88976287841797
v 16.46429443359375 26.48488998413086 26.82959365844727
v 16.46429443359375 4.47808837890625 31.54562187194824
v -16.62461090087891 26.48488998413086 26.82959365844727
v -16.62461090087891 4.47808837890625 31.54562187194824
v 16.46429443359375 -0.50869065523148 32.61428070068359
v -16.62461090087891 -0.50869065523148 32.61428070068359
v 16.46429443359375 -10.29848098754883 -13.06863975524902
v -16.62461090087891 -10.13984489440918 -12.32838344573975
v 16.46429443359375 -3.70784211158752 17.68581199645996
v -16.62461090087891 -3.5960853099823 18.20731163024902
v 10.96429443359375 -9.57110595703125 -9.67442893981934
v -11.12461090087891 -9.46520614624023 -9.18026161193848
v 10.96429443359375 -5.29366397857666 10.28575801849365
v -11.12461090087891 -5.21905946731567 10.63389205932617
v 10.96429443359375 -25.60702323913574 -6.237952709198
v -11.12461090087891 -25.50112342834473 -5.74378538131714
v 10.96429443359375 -21.32958030700684 13.72223377227783
v -11.12461090087891 -21.25497627258301 14.07036781311035
# 81 vertices

vn 0 0.20953549444675 0.97780102491379
vn 1 0 0
vn 0 -0.20953549444675 -0.97780102491379
vn -1 0 0
vn 0 0.97780102491379 -0.20953549444675
vn 0 -0.97780102491379 0.20953549444675
vn -0.84125900268555 0.52863067388535 -0.11328246444464
vn -0.41540887951851 0.88944309949875 -0.1905949562788
vn 0.14231307804585 0.96784776449203 -0.20740710198879
vn 0.65485429763794 0.73898059129715 -0.15834629535675
vn 0.95949369668961 0.27547591924667 -0.05903278663754
vn 0.95949369668961 -0.27547591924667 0.05903278663754
vn 0.65485429763794 -0.73898059129715 0.15834629535675
vn 0.14231307804585 -0.96784776449203 0.20740710198879
vn -0.41540887951851 -0.88944309949875 0.1905949562788
vn -0.84125900268555 -0.52863067388535 0.11328246444464
vn 0.01609406434 0.20950408279896 0.97767531871796
vn -0.02284413389862 -0.20947228372097 -0.97754770517349
# 18 normals

vt 0 0 0
vt 0 0.86687070131302 0
vt 0.11406641453505 0.86687070131302 0
vt 0.11406641453505 0 0
vt 1 0.86687070131302 0
vt 1 0 0
vt 0.88593357801437 0.86687070131302 0
vt 0.88593357801437 0 0
vt 0 1 0
vt 0.11406641453505 1 0
vt 0.88593357801437 1 0
vt 1 1 0
vt 0.11778809130192 0 0
vt 0.11778809130192 0.86687070131302 0
vt 0.11778809130192 1 0
vt 0.88221192359924 1 0
vt 0.88221192359924 0 0
vt 0.88221192359924 0.86687070131302 0
vt 0.69759500026703 0.30933690071106 0
vt 0.69759500026703 0.50186204910278 0
vt 0.63485997915268 0.14737451076508 0
vt 0.63485997915268 0.66382455825806 0
vt 0.52930790185928 0.7438023686409 0
vt 0.52930790185928 0.06739664077759 0
vt 0.41445070505142 0.71640318632126 0
vt 0.41445070505142 0.09479582309723 0
vt 0.32675483822823 0.59032601118088 0
vt 0.32675483822823 0.22087299823761 0
vt 0.29406309127808 0.40559947490692 0
vt 0.88221192359924 0.69096076488495 0
vt 0.11406641453505 0.69731801748276 0
vt 0 0.5 0
vt 0.5 0.5 0
vt 0.07937323302031 0.77032041549683 0
vt 0.09090909361839 0 0
vt 0.09090909361839 0.67440086603165 0
vt 0 0.67440086603165 0
vt 0.2922925055027 0.95481598377228 0
vt 0.18181818723679 0 0
vt 0.18181818723679 0.67440086603165 0
vt 0.57115739583969 0.9949107170105 0
vt 0.27272728085518 0 0
vt 0.27272728085518 0.67440086603165 0
vt 0.82743036746979 0.87787479162216 0
vt 0.36363637447357 0 0
vt 0.36363637447357 0.67440086603165 0
vt 0.97974646091461 0.64086627960205 0
vt 0.45454546809196 0 0
vt 0.45454546809196 0.67440086603165 0
vt 0.97974646091461 0.35913372039795 0
vt 0.54545456171036 0 0
vt 0.54545456171036 0.67440086603165 0
vt 0.82743036746979 0.12212526798248 0
vt 0.63636362552643 0 0
vt 0.63636362552643 0.67440086603165 0
vt 0.57115739583969 0.0050892829895 0
vt 0.72727274894714 0 0
vt 0.72727274894714 0.67440086603165 0
vt 0.2922925055027 0.04518401622772 0
vt 0.81818181276321 0 0
vt 0.81818181276321 0.67440086603165 0
vt 0.07937323302031 0.22967958450317 0
vt 0.90909093618393 0 0
vt 0.90909093618393 0.67440086603165 0
vt 1 0.67440086603165 0
vt 0.88221192359924 0.31605517864227 0
vt 0.11406641453505 0.32507908344269 0
vt 0.75115936994553 0.62831056118011 0
vt 0.75114387273788 0.38133728504181 0
vt 0.24512553215027 0.38727748394012 0
vt 0.24512523412704 0.63249552249908 0
vt 0.88221192359924 0.62749516963959 0
vt 0.88221192359924 0.38199555873871 0
# 73 texture coordinates

o grey
usemtl Mat
f 24/4/1 23/3/1 11/2/1 1/1/1
f 5/6/2 9/5/2 12/2/2 3/1/2
f 38/8/3 31/6/3 34/5/3 39/7/3
f 1/6/4 11/5/4 10/2/4 7/1/4
f 22/4/5 21/10/5 8/9/5 2/1/5
f 19/4/6 24/10/6 1/9/6 7/1/6
f 39/7/3 34/5/3 32/12/3 40/11/3
f 11/5/4 2/12/4 8/9/4 10/2/4
f 23/3/1 22/10/1 2/9/1 11/2/1
f 9/5/2 6/12/2 4/9/2 12/2/2
f 36/14/3 33/2/3 29/1/3 35/13/3
f 37/15/3 30/9/3 33/2/3 36/14/3
f 16/17/5 4/6/5 6/12/5 15/16/5
f 17/18/1 12/5/1 4/12/1 16/16/1
f 18/17/1 3/6/1 12/5/1 17/18/1
f 13/17/6 5/6/6 3/12/6 18/16/6
f 19/8/3 61/20/3 60/19/3
f 61/20/3 19/8/3 20/7/3
f 19/8/3 60/19/3 59/21/3
f 62/22/3 61/20/3 20/7/3
f 43/23/3 62/22/3 20/7/3
f 19/8/3 59/21/3 58/24/3
f 44/25/3 43/23/3 20/7/3 14/14/3
f 13/13/3 19/8/3 58/24/3
f 13/13/3 58/24/3 57/26/3
f 63/27/3 44/25/3 14/14/3
f 13/13/3 57/26/3 42/28/3
f 14/14/3 13/13/3 42/28/3 41/29/3
f 41/29/3 63/27/3 14/14/3
f 40/11/3 37/15/3 36/14/3 39/7/3
f 22/4/5 16/17/5 15/16/5 21/10/5
f 23/3/1 17/18/1 16/16/1 22/10/1
f 67/4/1 65/17/1 64/18/1 66/3/1
f 73/31/6 72/30/6 26/16/6 28/10/6
f 13/17/3 25/17/3 27/4/3 19/4/3
f 67/10/1 69/10/1 68/16/1 65/16/1
f 19/8/2 38/8/2 39/7/2 20/7/2
f 7/6/6 31/6/6 38/8/6 19/8/6
f 10/5/4 34/5/4 31/6/4 7/6/4
f 8/12/4 32/12/4 34/5/4 10/5/4
f 21/11/5 40/11/5 32/12/5 8/12/5
f 14/14/4 36/14/4 35/13/4 13/13/4
f 5/1/2 29/1/2 33/2/2 9/2/2
f 13/13/6 35/13/6 29/1/6 5/1/6
f 6/9/5 30/9/5 37/15/5 15/15/5
f 9/2/2 33/2/2 30/9/2 6/9/2
f 15/15/5 37/15/5 40/11/5 21/11/5
f 20/7/6 39/7/6 36/14/6 14/14/6
f 47/34/3 45/33/3 46/32/3
f 46/1/4 41/37/4 42/36/7 47/35/7
f 48/38/3 45/33/3 47/34/3
f 47/35/7 42/36/7 57/40/8 48/39/8
f 49/41/3 45/33/3 48/38/3
f 48/39/8 57/40/8 58/43/9 49/42/9
f 50/44/3 45/33/3 49/41/3
f 49/42/9 58/43/9 59/46/10 50/45/10
f 51/47/3 45/33/3 50/44/3
f 50/45/10 59/46/10 60/49/11 51/48/11
f 52/50/3 45/33/3 51/47/3
f 51/48/11 60/49/11 61/52/12 52/51/12
f 53/53/3 45/33/3 52/50/3
f 52/51/12 61/52/12 62/55/13 53/54/13
f 54/56/3 45/33/3 53/53/3
f 53/54/13 62/55/13 43/58/14 54/57/14
f 55/59/3 45/33/3 54/56/3
f 54/57/14 43/58/14 44/61/15 55/60/15
f 56/62/3 45/33/3 55/59/3
f 55/60/15 44/61/15 63/64/16 56/63/16
f 46/32/3 45/33/3 56/62/3
f 56/63/16 63/64/16 41/65/4 46/6/4
f 24/4/4 67/4/4 66/3/4 23/3/4
f 17/18/2 64/18/2 65/17/2 18/17/2
f 23/3/5 66/3/5 64/18/5 17/18/5
f 28/10/4 69/10/4 67/10/4 24/10/4
f 26/16/6 68/16/6 69/10/6 28/10/6
f 18/16/2 65/16/2 68/16/2 26/16/2
f 71/67/6 27/4/6 25/17/6 70/66/6
f 81/71/6 79/70/6 78/69/6 80/68/6
f 73/1/6 77/6/6 76/72/6 72/30/6
f 71/1/6 75/6/6 77/12/6 73/9/6
f 70/66/6 74/73/6 75/12/6 71/9/6
f 72/30/6 76/72/6 74/73/6 70/66/6
f 77/1/17 81/6/17 80/12/17 76/9/17
f 75/1/4 79/6/4 81/12/4 77/9/4
f 74/1/18 78/6/18 79/12/18 75/9/18
f 76/1/2 80/6/2 78/12/2 74/9/2
f 19/4/4 27/4/4 71/67/4 73/31/4 28/10/4 24/10/4
f 18/16/2 26/16/2 72/30/2 70/66/2 25/17/2 13/17/2

v -10.72945022583008 5.40435695648193 -62.71255111694336
v 10.72945022583008 5.40435695648193 -62.71255111694336
v -10.72945022583008 -14.58234214782715 -58.42942810058594
v 10.72945022583008 -14.58234214782715 -58.42942810058594
# 4 vertices

# 0 normal

# 0 texture coordinate

o black
usemtl Mat.1
f 83/6/3 85/12/3 84/9/3 82/1/3

v -14.3744068145752 -18.16669654846191 -57.56035995483398
v -14.3744068145752 -15.38305950164795 -58.06044006347656
v -11.54620742797852 -18.16669654846191 -57.56035995483398
v -11.54620742797852 -15.38305950164795 -58.06044006347656
v -11.54620742797852 -18.66677665710449 -60.34399795532227
v -11.54620742797852 -15.88313961029053 -60.84407806396484
v -14.3744068145752 -18.66677665710449 -60.34399795532227
v -14.3744068145752 -15.88313961029053 -60.84407806396484
# 8 vertices

vn 0 -0.37912794947624 -0.92534428834915
vn 0 0 0
# 2 normals

# 0 texture coordinate

o red
usemtl Mat.2
f 88/6/19 89/12/19 87/9/19 86/1/19
f 90/6/20 91/12/20 89/9/20 88/1/20
f 92/6/20 93/12/20 91/9/20 90/1/20
f 86/6/20 87/12/20 93/9/20 92/1/20
f 89/6/20 91/12/20 93/9/20 87/1/20
f 90/6/20 88/12/20 86/9/20 92/1/20

