<?xml version="1.0" encoding="UTF-8"?>
<svg id="Layer_1" data-name="Layer 1" xmlns="http://www.w3.org/2000/svg" viewBox="0 0 608.07 214.61">
  <defs>
    <style>
      .cls-1 {
        fill: #fdfeff;
        stroke-width: 0px;
      }
    </style>
  </defs>
  <g>
    <g>
      <path class="cls-1" d="m198.82,0s.08.07.12.09c6.79,1.86,8.15,7.69,6.61,13.07-.87,3.05-2.45,5.73-4.47,8.14-1.2,1.43-2.8,2.29-4.72,2.36-1.87.07-3.01-.98-3.3-2.81-.61-3.91,3.35-9.32,7.05-9.59,1.8-.13,2.21-.86,1.99-2.67-.23-1.86-1.65-3.01-3.87-3.07-2-.05-3.85.61-5.69,1.33-5.8,2.3-10.73,5.95-15.18,10.22-13.01,12.48-23.72,26.67-31.33,43.07-3.35,7.23-5.86,14.76-6.86,22.71-.44,3.5-.38,7.03.23,10.53,1.26,7.18,5.54,11.69,12.27,14.18,5.16,1.91,10.42,2.13,15.76,1.3,12.94-2.02,25.5-5.66,38.2-8.73,9.21-2.23,18.47-3.94,27.99-4.12,12.65-.25,24,3.25,33.99,11.09,3.37,2.64,6.79,5.2,9.81,8.25.85.86,1.68,1.73,2.33,2.76-1.19.11-2.23-.31-3.22-.9-5.56-3.34-11.58-5.36-17.98-6.3-3.15-.47-6.33-.49-9.47-.07-4.11.55-7.54,2.42-10.1,5.74-.18.24-.37.48-.57.7-.9.98-1.68.96-2.42-.17-1.7-2.6-3.78-4.82-6.39-6.54-4.77-3.15-10.11-4.4-15.73-4.69-10.05-.51-19.72,1.59-29.33,4.16-8.85,2.37-17.74,4.62-26.82,5.97-6.88,1.02-13.68.76-20.1-2.32-6.78-3.25-11.54-8.33-13.71-15.62-1.01-3.86-.99-9.23-.42-14.92,1.83-18.3,9-35.7,20.61-49.96,1.08-1.33,2.19-2.63,3.33-3.91,6.81-7.65,14.23-14.66,22.77-20.37,4.65-3.11,9.61-5.69,14.9-7.58,2.45-.87,5-.97,7.55-1.17.34-.03.71.11,1.01-.15h5.14Z"/>
      <path class="cls-1" d="m484.95,1.09c-.6,1.53-1.52,2.88-2.42,4.25-8.02,12.16-18.71,20.79-32.92,24.69-5.02,1.38-10.11,1.58-15.25.6-1.17-.22-1.18-.53-.5-1.39,2.2-2.82,4.5-5.55,6.84-8.26.38-.44.76-.73,1.4-.67,9.06.87,17.29-1.71,25.15-5.97,6.02-3.26,11.4-7.37,16.27-12.16.42-.41.7-.96,1.05-1.44.13.11.26.23.39.34Z"/>
      <path class="cls-1" d="m268.9,71.56c.83-1.5,1.7-2.97,2.55-4.45,6.86-11.89,13.72-23.79,20.61-35.66.67-1.16.48-1.4-.8-1.37-2.82.06-5.64.05-8.46,0-1-.02-1.76.17-2.17,1.18-.39.93-.79.72-1.32.04-2-2.57-4.68-3.12-7.71-2.44-1.58.35-3.05,1.03-4.45,1.82-2.6,1.47-4.93,3.3-7.13,5.31-6.08,5.57-11.15,12.01-15.87,18.74-4.83,6.9-9.99,13.53-16.27,19.2-2.48,2.24-5.17,4.2-8.61,4.7-2.45.35-4.35-.87-5.12-3.23-.5-1.51-.6-3.05-.34-4.62.7-4.23,2.56-8.03,4.42-11.82,4.19-8.53,9.59-16.17,16.97-22.29,1.5-1.24,3.13-2.21,5.11-2.42,2.14-.23,3.52,1.37,2.99,3.39-.14.55-.38.9-1,.93-3.71.18-5.53,2.7-6.95,5.68-.53,1.11-.7,2.3-.39,3.53.4,1.6,1.95,2.55,3.57,2.2.91-.2,1.71-.62,2.39-1.24,3.59-3.24,5.72-7.27,6.04-12.1.29-4.42-2.62-7.62-7.03-8.03-3.18-.29-6.09.55-8.82,2.1-4.74,2.69-8.67,6.35-12.41,10.25-3.54,3.69-7.41,6.96-12.09,9.15-.66.31-1.58.85-2.1.34-.45-.44.26-1.26.51-1.88,1.52-3.8,2.82-7.66,2.79-11.81-.05-5.8-3.54-8.82-9.27-8.06-3.26.43-6.17,1.85-8.84,3.68-11.88,8.13-20.42,18.97-25.86,32.26-1.9,4.65-2.98,9.5-2.47,14.58.63,6.29,5.16,9.32,11.19,7.43,2.33-.73,4.43-1.93,6.39-3.36,6.46-4.71,11.77-10.52,16.19-17.14,2.18-3.26,4.14-6.67,6.21-10,.28-.45.46-1.01,1.11-1.15,1.66-.36,3.31-.76,5.17-1.19-.34.64-.58,1.11-.83,1.58-1.66,3.05-3.16,6.17-4.48,9.38-1.83,4.47-2.66,9-1.68,13.84,1.16,5.74,5.51,9.17,11.24,8.58,2.53-.26,4.93-.95,7.2-2.09,3.31-1.66,6.22-3.89,8.94-6.38,2.22-2.03,4.39-4.11,6.7-6.28.14.95-.22,1.63-.39,2.34-.46,1.96-.83,3.93-.74,5.97.18,4.3,3.49,7.04,7.74,6.4,1.1-.17,2.16-.47,3.18-.91,3.62-1.59,6.51-4.16,9.23-6.94.25-.25.38-.72.92-.59-.06.92-.16,1.82-.16,2.72.02,4.09,2.7,6.32,6.73,5.57,2.38-.44,4.42-1.65,6.33-3.06,9.32-6.86,16.01-16.04,22.62-25.57-2.38-.5-4.07-.29-5.43,1.89-1.83,2.94-4.17,5.55-6.5,8.13-2.33,2.57-4.71,5.12-7.84,6.78-.58.31-1.23.6-1.85.12-.66-.5-.63-1.25-.43-1.94.18-.62.46-1.22.78-1.79Zm-71.51-16.03c-3.78,6.42-7.6,12.81-13.45,17.66-.93.77-1.91,1.5-3.03,1.96-2.97,1.21-5.23-.27-5.41-3.47-.11-1.9.42-3.67.95-5.46,1.51-5.09,7.59-16.02,10.87-19.44,2.13,3.89,5.53,6.17,9.61,7.53.78.26.8.64.46,1.22Zm6.25-16.51c-.12,4.08-1.8,7.69-3.43,11.31-.23.52-.69.51-1.16.45-3.06-.44-5.58-1.83-7.06-4.59-1.36-2.55-.57-5.03.91-7.26,1.34-2.03,2.98-3.82,5.41-4.62,3.04-1.01,5.04.32,5.33,3.51.04.4,0,.8,0,1.21Zm55.28,28.97c-1.98,3.01-4.32,5.7-7.49,7.54-1.9,1.11-3.67.13-3.65-2.26.28-2.05,1.08-4.22,1.98-6.35,3.14-7.43,7.67-14.01,12.59-20.34,2.16-2.78,4.41-5.5,6.65-8.21,1.23-1.49,2.74-2.68,4.47-3.54.91-.45,1.87-.77,2.91-.46,1.17.35,1.59,1.25,1,2.3-5.99,10.53-11.8,21.17-18.47,31.31Z"/>
      <path class="cls-1" d="m409.56,4.6c-9.05-4.8-18.45-5.69-28.1-1.9-1.83.72-3.41,1.09-4.94-.59-.62-.69-1.65-.92-2.57-1.21-2.92-.9-5.89-.82-8.81-.13-8.59,2.03-16.29,6.03-23.42,11.13-12.32,8.82-22.49,19.79-31.31,32.04-7.47,10.36-13.88,21.3-18.07,33.45-2.47,7.17-4.11,14.42-2.85,22.04.94,5.67,3.28,10.62,8.28,13.8,6.22,3.95,12.68,3.04,18.87.03,7.6-3.7,13.67-9.38,18.81-16.01,5.6-7.21,10.13-15,12.18-24.01.85-3.76,1.21-7.56-.16-11.31-1.18-3.24-3.84-4.95-7.28-4.6-5.11.52-9.41,2.85-13.14,6.22-8.69,7.87-12.09,18.23-13.39,29.54.23-.26.45-.52.69-.77,3.73-3.86,7.85-7.23,12.67-9.64,1.01-.5,1.48-1.12,1.71-2.2,1.03-5.02,3.25-9.5,6.51-13.44,1.35-1.64,2.86-3.12,5.02-3.7,2.46-.65,3.79.13,4.31,2.59.53,2.53.07,5.02-.57,7.46-2.93,11.1-9.16,20.14-17.63,27.72-2.4,2.15-5.09,3.95-8.2,4.99-5.52,1.86-10.49-.5-12.52-5.97-.89-2.4-1.13-4.89-.87-7.43.76-7.41,2.73-14.51,5.69-21.33,5.54-12.78,13.09-24.32,21.8-35.15,7.02-8.73,14.45-17.06,23.65-23.61,3.98-2.83,8.04-5.55,12.78-6.99,1.88-.57,3.79-.67,5.68.16-.07.14-.08.2-.12.23-.54.36-1.1.71-1.64,1.07-10.02,6.7-17.94,15.18-22.52,26.49-1.09,2.69-1.87,5.42-1.39,8.37.68,4.22,3.85,6.21,7.93,5,2.59-.77,4.96-1.97,7.03-3.71,6.99-5.87,11.8-13.24,14.9-21.77,1.29-3.56,2.19-7.21,2.17-11.04-.01-3.04.3-3.41,3.24-3.39.4,0,.81.02,1.21.06,4.97.54,9.49,2.41,13.8,4.78,6.62,3.63,12.72,8.11,19.16,12.04,2.71,1.65,2.7,1.64,4.79-.65,1.15-1.27,2.28-2.56,3.51-3.74.87-.84,1.82-1.61,2.82-2.44.41-.34.37-.99-.08-1.27-6.7-4.2-13.12-7.79-19.62-11.24Zm-32.42,6.56c-.84,8.81-4.23,16.65-9.99,23.5-2.34,2.78-4.95,5.28-8,7.28-.63.41-1.28.8-1.97,1.11-3.05,1.39-5.42-.28-5.12-3.61.15-1.66.64-3.26,1.35-4.76,4.79-10.14,11.67-18.47,21.29-24.41.21-.13.42-.28.65-.37.54-.23,1.07-.94,1.59-.58.45.32.15,1.13.2,1.85Z"/>
    </g>
    <polygon class="cls-1" points="311.84 30.12 305.59 40.21 295.03 40.21 301.04 30.12 311.84 30.12"/>
  </g>
  <path class="cls-1" d="m608.07,169.94v42.07s-123.32-45.52-273.73-10.95C189.39,234.38,34.27,197.06,0,186.56v-66.13c32.94,19.96,173.25,96.01,362.58,71.4,217.25-28.24,193.31-29.95,245.49-21.9Z"/>
  <path class="cls-1" d="m462.76,60.14c.4-.69-.08-1.54-.87-1.53-2.18.03-4.36.09-6.53-.05-2.24-.14-4.06.13-4.84,2.58,0,.02-.02.04-.04.05-.14.11-.33.07-.44-.06-.31-.38-.64-.75-.92-1.16-1.41-2-3.35-2.75-5.75-2.65-2.12.08-4.06.69-5.87,1.74-1.74,1.01-3.39,2.16-4.97,3.42-6.67,5.28-11.91,11.84-16.67,18.79-3.72,5.44-7.24,11.01-10.97,16.45-1.82,2.65-3.78,5.24-6.56,7.01-1.83,1.17-3.54.41-3.95-1.72-.24-1.24-.17-2.5.08-3.75,1.19-6.21,3.48-12.05,5.99-17.82.64-1.48,1.55-2.58,2.88-3.53,16.68-11.98,30.53-26.77,42.73-43.2.4-.53.87-1.06.97-1.72-2.54-.4-4.16.57-5.58,2.64-2.62,3.81-5.72,7.28-8.83,10.71-7.43,8.23-15.09,16.22-23.8,23.13-1.04.83-2.07,1.7-3.44,2.22.09-.89.52-1.52.85-2.17,6.39-12.47,13.76-24.33,21.83-35.77,6.38-9.05,13.56-17.38,21.99-24.58,1.49-1.28,3.05-2.49,4.95-3.12,1.24-.41,1.84.04,1.79,1.35-.06,1.73-.55,3.36-1.32,4.92-.67,1.37-1.34,2.75-2.13,4.4-.2.42.15.88.61.8,1.31-.23,2.52-.22,3.1-1.18,2.17-3.56,3.72-7.39,3.12-11.72-.26-1.83-1.47-2.93-3.33-3.15-1.58-.19-3.11.01-4.61.54-3.66,1.28-6.88,3.35-9.88,5.72-12.74,10.08-23.36,22.13-32.62,35.41-7.9,11.33-14.65,23.33-20.67,35.75-.3.62-.5,1.32-1.24,1.63-1.5.62-3.04,1.05-4.66,1.14-.85.05-.93-.27-.58-1,.34-.71.69-1.42,1-2.14,2.07-4.81,3.89-9.69,3.22-15-.51-4.04-3.06-6.29-7.12-6.24-1.63.02-3.19.36-4.7.97-3.25,1.31-6.26,3.03-8.92,5.29-9.79,8.28-17.01,18.45-21.87,30.28-1.85,4.5-3.03,9.16-2.74,14.1.35,5.97,4.49,8.99,10.24,7.43,1.32-.35,2.55-.91,3.74-1.58,4.94-2.76,9.07-6.48,12.76-10.74,4.4-5.08,8-10.72,11.37-16.51.29-.5.42-1.19,1.16-1.27,1.88-.2,3.77-.38,5.68-.58.09.62-.22,1.11-.38,1.62-1.09,3.45-2.24,6.88-3.28,10.34-1.04,3.48-1.84,7.01-1.68,10.68.32,7.28,5.94,10.44,12.28,6.9,2.21-1.24,4.18-2.81,5.95-4.6,1.65-1.66,3.22-3.4,4.99-5.28,0,1.59-.06,2.97.01,4.35.3,5.8,4.8,8.58,10.16,6.3,2.29-.97,4.32-2.38,6.21-3.97,1.6-1.34,3.12-2.77,4.75-4.23,0,1.32-.07,2.52.01,3.7.3,4.09,3.16,6.1,7.14,5.03.63-.17,1.25-.4,1.83-.68,3.34-1.58,6.41-3.57,9.1-6.13,6.43-6.09,11.63-13.14,16.39-20.53l-3.74-.4c-2.17,3.57-4.63,6.95-7.39,10.1-2.07,2.36-4.31,4.51-6.98,6.19-.74.47-1.54.99-2.35.33-.84-.68-.4-1.59-.06-2.36.62-1.43,1.22-2.88,1.98-4.23,7.12-12.55,14.28-25.08,21.42-37.62,0,0,0,0,0-.01Zm-86.66,25.28c-3.19,6.1-7.01,11.73-12.2,16.33-1.32,1.17-2.76,2.19-4.56,2.53-1.99.38-3.47-.55-4-2.48-.37-1.35-.27-2.72.05-4.03,1.97-8.24,6.6-15.08,11.52-21.96,2.06,3.89,5.11,6.42,8.8,8.23.81.4.7.79.38,1.39Zm2.75-5c-.31.59-.72.55-1.25.34-6.49-2.45-9-9.72-3.84-15.01,1.24-1.27,2.62-2.37,4.29-3.01,2.88-1.09,4.88.22,5.1,3.28.03.45,0,.9,0,1.36-.15,4.77-2.17,8.92-4.29,13.04Zm68.78-14.32c-7,11.39-12.72,23.56-21.03,34.15-1.31,1.67-2.85,3.16-4.84,3.99-1.89.79-3.21-.19-3.17-2.34.11-1.69.4-3.49,1.13-5.15,5.26-11.96,12.2-22.76,22.05-31.51,1.1-.98,2.31-1.81,3.82-2.01.77-.1,1.51.03,2,.75.49.71.46,1.42.03,2.12Z"/>
</svg>