# WaveFront *.obj file (generated by CINEMA 4D)

mtllib ./interior_0.mtl

v -100 -15.18341541290283 25.73954582214355
v -20.68464088439941 486.56503295898438 31.80540657043457
v 100 -15.18341541290283 25.73954582214355
v 20.68464088439941 486.56503295898438 31.80540657043457
v 100 -15.18341541290283 -561.278564453125
v 20.68464088439941 486.56503295898438 -533.065673828125
v -100 -15.18341541290283 -561.278564453125
v -20.68464088439941 486.56503295898438 -533.065673828125
# 8 vertices

vn 0 -0.01208856329322 0.99992692470551
vn 0.98773509263992 0.15613912045956 0
vn 0 0.05614048242569 -0.99842286109924
vn -0.98773509263992 0.15613912045956 0
vn 0 -1 0
# 5 normals

vt 0 0 0
vt 0 1 0
vt 1 1 0
vt 1 0 0
# 4 texture coordinates

o Cube.1
usemtl default
f 3/4/1 4/3/1 2/2/1 1/1/1
f 5/4/2 6/3/2 4/2/2 3/1/2
f 7/4/3 8/3/3 6/2/3 5/1/3
f 1/4/4 2/3/4 8/2/4 7/1/4
f 5/4/5 3/3/5 1/2/5 7/1/5

