<?xml version="1.0" encoding="utf-8"?>
<!-- Generator: Adobe Illustrator 28.0.0, SVG Export Plug-In . SVG Version: 6.00 Build 0)  -->
<svg version="1.1" id="Layer_1" xmlns="http://www.w3.org/2000/svg" xmlns:xlink="http://www.w3.org/1999/xlink" x="0px" y="0px"
	 width="595.28px" height="841.89px" viewBox="0 0 595.28 841.89" style="enable-background:new 0 0 595.28 841.89;"
	 xml:space="preserve">
<style type="text/css">
	.st0{fill:#ADADAD;}
</style>
<g>
	<path class="st0" d="M111.04,723.83c-2.15-1.87-4.67-3.49-7.56-4.88c-2.88-1.38-6.03-2.6-9.45-3.66l-9.93-2.92
		c-3.62-1.1-6.82-2.44-9.6-4.02c-2.78-1.58-4.97-3.52-6.55-5.82c-1.58-2.29-2.38-4.99-2.38-8.07c0-3.57,0.96-6.77,2.89-9.6
		c1.93-2.82,4.61-5.04,8.04-6.64c3.43-1.6,7.32-2.41,11.67-2.41c6.5,0,11.8,1.74,15.9,5.21c4.1,3.47,6.38,7.99,6.83,13.56h5.67
		c-0.24-4.63-1.58-8.75-4.02-12.37c-2.44-3.62-5.73-6.46-9.87-8.53c-4.14-2.07-8.94-3.11-14.38-3.11c-5.4,0-10.24,1.03-14.5,3.08
		c-4.27,2.05-7.64,4.9-10.12,8.53c-2.48,3.64-3.72,7.79-3.72,12.46c0,5.53,1.85,10.16,5.55,13.89c3.7,3.74,9.16,6.7,16.39,8.9
		l10.48,3.17c4.35,1.3,7.98,2.78,10.91,4.45c2.92,1.67,5.14,3.62,6.64,5.85c1.5,2.23,2.25,4.94,2.25,8.1c0,3.9-1.05,7.34-3.14,10.33
		c-2.09,2.99-4.99,5.3-8.68,6.95c-3.7,1.65-7.96,2.47-12.8,2.47c-4.51,0-8.52-0.73-12.04-2.19c-3.51-1.46-6.32-3.57-8.41-6.31
		c-2.09-2.74-3.28-5.98-3.56-9.72h-5.85c0.32,4.67,1.74,8.79,4.23,12.34s5.92,6.33,10.27,8.32c4.35,1.99,9.47,2.99,15.36,2.99
		c6.17,0,11.52-1.1,16.03-3.29c4.51-2.19,8-5.18,10.48-8.96c2.48-3.78,3.72-8.06,3.72-12.86c0-3.29-0.59-6.19-1.77-8.68
		C114.85,727.88,113.19,725.7,111.04,723.83z"/>
	<path class="st0" d="M154.85,757.77c-0.61,0.12-1.14,0.22-1.58,0.3c-3.29,0.57-5.83-0.02-7.62-1.77c-1.79-1.75-2.68-4.49-2.68-8.23
		v-48.57h14.14v-5h-14.14v-16.21h-5.48v16.21h-10.12v5h10.12v48.87c0,5,1.42,8.89,4.27,11.67c2.84,2.78,6.76,3.81,11.76,3.08
		c0.69-0.04,1.41-0.13,2.16-0.27c0.75-0.14,1.43-0.31,2.04-0.52l-1.22-4.88C156.01,757.55,155.46,757.65,154.85,757.77z"/>
	<path class="st0" d="M216.52,738.58c0,3.94-0.89,7.4-2.68,10.39c-1.79,2.99-4.23,5.31-7.31,6.98c-3.09,1.67-6.58,2.5-10.48,2.5
		c-5.69,0-10.3-1.76-13.83-5.27c-3.53-3.51-5.3-8.2-5.3-14.05v-44.61h-5.48v44.91c0,5,1,9.3,2.99,12.92
		c1.99,3.62,4.75,6.39,8.29,8.32c3.53,1.93,7.62,2.89,12.25,2.89c5.12,0,9.76-1.3,13.92-3.9c3.47-2.16,6.07-5.37,7.83-9.59v12.57
		h5.36v-68.13h-5.55V738.58z"/>
	<path class="st0" d="M290.38,709.75h-0.55c-0.98-2.93-2.46-5.62-4.45-8.07c-1.99-2.46-4.44-4.42-7.34-5.88
		c-2.91-1.46-6.31-2.19-10.21-2.19c-5.4,0-10.15,1.5-14.23,4.51c-4.08,3.01-7.25,7.16-9.51,12.46c-2.25,5.3-3.38,11.37-3.38,18.19
		c0,6.87,1.12,12.96,3.35,18.28c2.23,5.32,5.39,9.5,9.48,12.52s8.85,4.54,14.29,4.54c3.86,0,7.24-0.75,10.15-2.25
		c2.9-1.5,5.35-3.49,7.34-5.97c1.99-2.48,3.49-5.18,4.51-8.1h0.67v14.87h5.42v-90.8h-5.55V709.75z M287.79,744.21
		c-1.77,4.57-4.3,8.18-7.59,10.82c-3.29,2.64-7.23,3.96-11.82,3.96c-4.63,0-8.59-1.34-11.88-4.02c-3.29-2.68-5.81-6.31-7.56-10.88
		c-1.75-4.57-2.62-9.7-2.62-15.39c0-5.65,0.87-10.73,2.62-15.26c1.75-4.53,4.27-8.11,7.56-10.76c3.29-2.64,7.25-3.96,11.88-3.96
		c4.59,0,8.53,1.3,11.82,3.9c3.29,2.6,5.82,6.15,7.59,10.66s2.65,9.65,2.65,15.42C290.44,734.47,289.56,739.64,287.79,744.21z"/>
	<rect x="318.41" y="694.52" class="st0" width="5.49" height="68.13"/>
	<path class="st0" d="M321.09,671.79c-1.22,0-2.26,0.42-3.14,1.25c-0.87,0.83-1.31,1.86-1.31,3.08c0,1.18,0.44,2.19,1.31,3.05
		c0.87,0.85,1.92,1.28,3.14,1.28c1.26,0,2.33-0.43,3.2-1.28c0.87-0.85,1.31-1.87,1.31-3.05c0-1.22-0.44-2.24-1.31-3.08
		C323.42,672.2,322.35,671.79,321.09,671.79z"/>
	<path class="st0" d="M386.79,698.14c-4.39-3.03-9.41-4.54-15.05-4.54c-5.61,0-10.61,1.51-15.02,4.54
		c-4.41,3.03-7.87,7.19-10.39,12.49c-2.52,5.3-3.78,11.36-3.78,18.19s1.26,12.89,3.78,18.19c2.52,5.3,5.98,9.48,10.39,12.52
		c4.41,3.05,9.42,4.57,15.02,4.57c5.65,0,10.66-1.52,15.05-4.57c4.39-3.05,7.84-7.22,10.36-12.52c2.52-5.3,3.78-11.37,3.78-18.19
		c0-6.78-1.26-12.84-3.78-18.16C394.62,705.34,391.17,701.17,386.79,698.14z M392.39,744.09c-1.95,4.57-4.69,8.2-8.23,10.88
		c-3.53,2.68-7.68,4.02-12.43,4.02c-4.71,0-8.84-1.34-12.37-4.02c-3.54-2.68-6.29-6.31-8.26-10.88c-1.97-4.57-2.96-9.66-2.96-15.27
		s0.98-10.67,2.96-15.2c1.97-4.53,4.72-8.14,8.26-10.85c3.53-2.7,7.66-4.05,12.37-4.05c4.75,0,8.9,1.34,12.43,4.02
		c3.54,2.68,6.28,6.31,8.23,10.88s2.92,9.64,2.92,15.2C395.32,734.43,394.34,739.52,392.39,744.09z"/>
	<path class="st0" d="M500.38,592.64c-15.18-16.74-36.86-25.1-65.06-25.1H251.4v71.62h185.36c10.08,0,17.58,2.16,22.5,6.48
		c4.92,4.32,7.38,10.56,7.38,18.72c0,8.16-2.46,14.46-7.38,18.9c-4.92,4.44-12.3,6.66-22.14,6.66h-18.18v72.71h16.74
		c28.07,0,49.67-8.52,64.79-25.55c15.12-17.03,22.68-41.27,22.68-72.71C523.15,633.29,515.56,609.38,500.38,592.64z"/>
	<path class="st0" d="M519.55,460.28H440v-40.31c0-20.39-3.81-38.27-11.43-53.63c-7.62-15.36-18.42-27.29-32.39-35.81
		c-13.98-8.52-30.56-12.78-49.76-12.78c-19.08,0-35.75,4.17-50.03,12.51c-14.28,8.34-25.34,19.98-33.2,34.91
		c-7.86,14.94-11.79,32.37-11.79,52.28v115.54h268.14V460.28z M309.71,434.73c0-8.64,1.44-16.02,4.32-22.14s7.05-10.8,12.51-14.04
		c5.46-3.24,12.09-4.86,19.89-4.86c7.56,0,14.1,1.62,19.62,4.86c5.52,3.24,9.81,7.92,12.87,14.04c3.06,6.12,4.59,13.5,4.59,22.14
		v25.55h-73.79V434.73z"/>
	<polygon class="st0" points="519.55,110.08 460.88,110.08 460.88,218.41 251.4,218.41 251.4,291.12 519.55,291.12 	"/>
</g>
</svg>
