<?xml version="1.0" encoding="utf-8"?>
<!-- Generator: Adobe Illustrator 28.0.0, SVG Export Plug-In . SVG Version: 6.00 Build 0)  -->
<svg version="1.1" id="Layer_1" xmlns="http://www.w3.org/2000/svg" xmlns:xlink="http://www.w3.org/1999/xlink" x="0px" y="0px"
	 width="595.28px" height="841.89px" viewBox="0 0 595.28 841.89" style="enable-background:new 0 0 595.28 841.89;"
	 xml:space="preserve">
<style type="text/css">
	.st0{fill:#EAEAEA;}
</style>
<g>
	<path class="st0" d="M170.4,732.09c-1.71-1.49-3.72-2.78-6.01-3.88c-2.29-1.1-4.8-2.07-7.51-2.91l-7.9-2.33
		c-2.88-0.87-5.42-1.94-7.63-3.2c-2.21-1.26-3.95-2.8-5.21-4.63c-1.26-1.82-1.89-3.97-1.89-6.42c0-2.84,0.77-5.39,2.3-7.63
		c1.53-2.25,3.67-4.01,6.4-5.28c2.73-1.28,5.82-1.91,9.28-1.91c5.17,0,9.38,1.38,12.65,4.14c3.26,2.76,5.07,6.36,5.43,10.78h4.51
		c-0.19-3.68-1.26-6.96-3.2-9.84c-1.94-2.87-4.56-5.14-7.85-6.78c-3.3-1.65-7.11-2.47-11.44-2.47c-4.3,0-8.14,0.82-11.53,2.45
		c-3.39,1.63-6.07,3.89-8.04,6.78c-1.97,2.89-2.96,6.2-2.96,9.91c0,4.39,1.47,8.08,4.41,11.05c2.94,2.97,7.29,5.33,13.04,7.07
		l8.33,2.52c3.46,1.03,6.35,2.21,8.67,3.54c2.33,1.33,4.09,2.88,5.28,4.65c1.2,1.78,1.79,3.92,1.79,6.44c0,3.1-0.83,5.84-2.5,8.21
		c-1.66,2.37-3.97,4.22-6.91,5.52c-2.94,1.31-6.33,1.96-10.18,1.96c-3.59,0-6.78-0.58-9.57-1.74c-2.79-1.16-5.02-2.84-6.69-5.02
		c-1.66-2.18-2.61-4.76-2.83-7.73H128c0.26,3.72,1.38,6.99,3.37,9.81c1.99,2.83,4.71,5.03,8.17,6.61c3.46,1.58,7.53,2.37,12.21,2.37
		c4.91,0,9.16-0.87,12.74-2.62c3.59-1.74,6.36-4.12,8.33-7.12c1.97-3,2.96-6.41,2.96-10.22c0-2.62-0.47-4.92-1.41-6.91
		C173.44,735.31,172.11,733.58,170.4,732.09z"/>
	<path class="st0" d="M205.24,759.08c-0.48,0.1-0.9,0.18-1.26,0.24c-2.62,0.45-4.64-0.02-6.06-1.41c-1.42-1.39-2.13-3.57-2.13-6.54
		v-38.62h11.24v-3.97h-11.24v-12.89h-4.36v12.89h-8.04v3.97h8.04v38.86c0,3.97,1.13,7.07,3.39,9.28c2.26,2.21,5.38,3.03,9.35,2.45
		c0.55-0.03,1.12-0.1,1.72-0.22c0.6-0.11,1.14-0.25,1.62-0.41l-0.97-3.88C206.16,758.9,205.73,758.98,205.24,759.08z"/>
	<path class="st0" d="M254.28,743.82c0,3.13-0.71,5.89-2.13,8.26c-1.42,2.37-3.36,4.22-5.81,5.55c-2.46,1.32-5.23,1.99-8.33,1.99
		c-4.52,0-8.19-1.4-11-4.19c-2.81-2.79-4.22-6.52-4.22-11.17v-35.47h-4.36v35.71c0,3.97,0.79,7.4,2.37,10.27
		c1.58,2.88,3.78,5.08,6.59,6.61c2.81,1.53,6.06,2.3,9.74,2.3c4.07,0,7.76-1.03,11.07-3.1c2.76-1.72,4.82-4.27,6.23-7.62v10h4.26
		v-54.18h-4.41V743.82z"/>
	<path class="st0" d="M313.02,720.9h-0.44c-0.78-2.33-1.96-4.47-3.54-6.42c-1.58-1.95-3.53-3.51-5.84-4.68
		c-2.31-1.16-5.02-1.74-8.12-1.74c-4.3,0-8.07,1.2-11.32,3.59c-3.25,2.39-5.77,5.69-7.56,9.91c-1.79,4.22-2.69,9.04-2.69,14.47
		c0,5.46,0.89,10.31,2.67,14.54c1.78,4.23,4.29,7.55,7.54,9.96s7.03,3.61,11.36,3.61c3.07,0,5.76-0.6,8.07-1.79
		c2.31-1.2,4.26-2.78,5.84-4.75c1.58-1.97,2.78-4.12,3.59-6.44h0.53v11.82h4.31v-72.2h-4.41V720.9z M310.96,748.3
		c-1.41,3.63-3.42,6.5-6.03,8.6c-2.62,2.1-5.75,3.15-9.4,3.15c-3.68,0-6.83-1.07-9.45-3.2c-2.62-2.13-4.62-5.02-6.01-8.65
		c-1.39-3.63-2.08-7.71-2.08-12.24c0-4.49,0.69-8.54,2.08-12.14c1.39-3.6,3.39-6.45,6.01-8.55c2.62-2.1,5.77-3.15,9.45-3.15
		c3.65,0,6.78,1.03,9.4,3.1c2.62,2.07,4.63,4.89,6.03,8.48c1.41,3.59,2.11,7.67,2.11,12.26
		C313.07,740.55,312.36,744.67,310.96,748.3z"/>
	<rect x="335.31" y="708.78" class="st0" width="4.36" height="54.18"/>
	<path class="st0" d="M337.44,690.71c-0.97,0-1.8,0.33-2.5,0.99c-0.7,0.66-1.04,1.48-1.04,2.45c0,0.94,0.35,1.74,1.04,2.42
		c0.7,0.68,1.53,1.02,2.5,1.02c1,0,1.85-0.34,2.54-1.02c0.69-0.68,1.04-1.49,1.04-2.42c0-0.97-0.35-1.78-1.04-2.45
		C339.29,691.04,338.44,690.71,337.44,690.71z"/>
	<path class="st0" d="M389.68,711.66c-3.49-2.41-7.48-3.61-11.97-3.61c-4.46,0-8.44,1.2-11.95,3.61c-3.51,2.41-6.26,5.72-8.26,9.93
		c-2,4.22-3.01,9.04-3.01,14.46s1,10.25,3.01,14.47c2,4.22,4.76,7.54,8.26,9.96c3.5,2.42,7.49,3.63,11.95,3.63
		c4.49,0,8.48-1.21,11.97-3.63c3.49-2.42,6.23-5.74,8.24-9.96c2-4.22,3-9.04,3-14.47c0-5.39-1-10.21-3-14.44
		C395.91,717.39,393.17,714.07,389.68,711.66z M394.14,748.2c-1.55,3.63-3.73,6.52-6.54,8.65c-2.81,2.13-6.11,3.2-9.89,3.2
		c-3.75,0-7.03-1.07-9.84-3.2c-2.81-2.13-5-5.02-6.57-8.65c-1.57-3.63-2.35-7.68-2.35-12.14c0-4.46,0.78-8.49,2.35-12.09
		c1.57-3.6,3.76-6.48,6.57-8.63c2.81-2.15,6.09-3.22,9.84-3.22c3.78,0,7.08,1.07,9.89,3.2c2.81,2.13,4.99,5.02,6.54,8.65
		c1.55,3.63,2.33,7.66,2.33,12.09C396.46,740.52,395.69,744.57,394.14,748.2z"/>
	<path class="st0" d="M500.38,592.64c-15.18-16.74-36.86-25.1-65.06-25.1H251.4v71.62h185.36c10.08,0,17.58,2.16,22.5,6.48
		c4.92,4.32,7.38,10.56,7.38,18.72c0,8.16-2.46,14.46-7.38,18.9c-4.92,4.44-12.3,6.66-22.14,6.66h-18.18v72.71h16.74
		c28.07,0,49.67-8.52,64.79-25.55c15.12-17.03,22.68-41.27,22.68-72.71C523.15,633.29,515.56,609.38,500.38,592.64z"/>
	<path class="st0" d="M519.55,460.28H440v-40.31c0-20.39-3.81-38.27-11.43-53.63c-7.62-15.36-18.42-27.29-32.39-35.81
		c-13.98-8.52-30.56-12.78-49.76-12.78c-19.08,0-35.75,4.17-50.03,12.51c-14.28,8.34-25.34,19.98-33.2,34.91
		c-7.86,14.94-11.79,32.37-11.79,52.28v115.54h268.14V460.28z M309.71,434.73c0-8.64,1.44-16.02,4.32-22.14s7.05-10.8,12.51-14.04
		c5.46-3.24,12.09-4.86,19.89-4.86c7.56,0,14.1,1.62,19.62,4.86c5.52,3.24,9.81,7.92,12.87,14.04c3.06,6.12,4.59,13.5,4.59,22.14
		v25.55h-73.79V434.73z"/>
	<polygon class="st0" points="519.55,110.08 460.88,110.08 460.88,218.41 251.4,218.41 251.4,291.12 519.55,291.12 	"/>
</g>
</svg>
